#!OML:ASF H:\Terrain\Patient Classification 1\Terrain2\Thursday\justin.ASF
:FULLY-SPECIFIED
:DEGREES
3739
root 12.7285 17.6109 -22.3661 1511.05 -83.7376 -68.0033
lowerback 6.24844 1.25727 6.98421
upperback 1.84581 2.03871 4.28674
thorax -1.49917 0.942383 0.369819
lowerneck -12.1073 -2.02219 -9.32507
upperneck 38.508 -3.68808 4.04588
head 15.961 -2.88871 2.65709
rclavicle -2.74323e-014 -1.82882e-014
rhumerus -26.6073 -8.59158 -77.5355
rradius 34.8778
rwrist -15.2594
rhand -21.6163 12.3619
rfingers 7.12502
rthumb 4.77927 -17.5642
lclavicle -2.74323e-014 -1.82882e-014
lhumerus -39.1402 3.0357 87.5829
lradius 37.0332
lwrist 7.42233
lhand -21.0626 20.4424
lfingers 7.12502
lthumb 5.31389 50.3558
rfemur -15.07 -5.20883 30.3924
rtibia 23.7278
rfoot -9.23026 5.96829
rtoes 18.8649
lfemur -20.1595 1.23549 -11.4811
ltibia 47.4185
lfoot -16.3344 -11.854
ltoes 9.31156
3740
root 12.6817 17.5954 -22.3639 1512.2 -83.8759 -69.1256
lowerback 6.28325 1.28562 6.87451
upperback 1.84592 2.07321 4.32184
thorax -1.52251 0.958727 0.463465
lowerneck -12.1533 -2.07044 -9.38942
upperneck 38.5551 -3.66263 3.83761
head 15.9937 -2.91665 2.58131
rclavicle -2.0276e-014 -3.26007e-014
rhumerus -26.5095 -8.3474 -77.4954
rradius 35.1356
rwrist -15.1251
rhand -21.535 12.333
rfingers 7.12502
rthumb 4.85779 -17.5913
lclavicle -2.0276e-014 -3.26007e-014
lhumerus -39.1042 3.16238 87.6572
lradius 36.9935
lwrist 7.66099
lhand -20.2235 20.0298
lfingers 7.12502
lthumb 6.12401 49.9212
rfemur -15.1492 -4.837 30.2848
rtibia 24.1891
rfoot -9.61969 5.76189
rtoes 19.6388
lfemur -20.3323 1.63786 -11.6593
ltibia 46.184
lfoot -16.7598 -12.0803
ltoes 9.46095
3741
root 12.6383 17.591 -22.3554 1513.31 -83.9343 -70.2233
lowerback 6.33224 1.30071 6.93949
upperback 1.84862 2.10084 4.33161
thorax -1.54367 0.971206 0.434631
lowerneck -12.0725 -2.0648 -9.46864
upperneck 38.5277 -3.61025 3.75949
head 15.9563 -2.91737 2.56994
rclavicle 1.2921e-014 -3.18055e-015
rhumerus -26.4125 -8.13805 -77.4901
rradius 35.3416
rwrist -15.1475
rhand -21.4357 12.4968
rfingers 7.12502
rthumb 4.95368 -17.4253
lclavicle 1.2921e-014 -3.18055e-015
lhumerus -39.1143 3.52534 87.5017
lradius 37.0021
lwrist 7.21163
lhand -18.7305 20.2763
lfingers 7.12502
lthumb 7.56533 50.121
rfemur -15.1835 -4.6331 30.2404
rtibia 24.5946
rfoot -10.0332 5.60064
rtoes 19.1913
lfemur -20.4827 1.94642 -11.7803
ltibia 44.9499
lfoot -17.0407 -12.2231
ltoes 9.27734
3742
root 12.5956 17.593 -22.3477 1514.12 -83.853 -70.9249
lowerback 6.28849 1.30923 7.16916
upperback 1.82506 2.122 4.32949
thorax -1.5336 0.980628 0.305046
lowerneck -12.1404 -1.9972 -9.49979
upperneck 38.6091 -3.5133 3.80396
head 16.007 -2.8782 2.61229
rclavicle -2.18663e-015 -5.08889e-014
rhumerus -26.3514 -7.85795 -77.5322
rradius 35.669
rwrist -15.1658
rhand -21.5375 12.5466
rfingers 7.12502
rthumb 4.85536 -17.3778
lclavicle -2.18663e-015 -5.08889e-014
lhumerus -39.1429 3.78543 87.33
lradius 37.0146
lwrist 6.69285
lhand -16.8743 20.9023
lfingers 7.12502
lthumb 9.35667 50.6747
rfemur -15.2642 -4.50757 30.3366
rtibia 24.8994
rfoot -10.3644 5.44956
rtoes 18.2788
lfemur -20.6765 1.86981 -11.8017
ltibia 43.7016
lfoot -17.5568 -11.8876
ltoes 7.2467
3743
root 12.5493 17.5855 -22.3402 1514.05 -83.8623 -70.7585
lowerback 6.17123 1.26092 7.25856
upperback 1.81956 2.05062 4.33612
thorax -1.4739 0.946272 0.270363
lowerneck -12.2746 -1.87913 -9.50348
upperneck 38.6911 -3.29325 3.73929
head 16.0596 -2.79718 2.62245
rclavicle 2.18663e-015 -1.66979e-014
rhumerus -26.214 -7.41673 -77.553
rradius 35.9485
rwrist -15.076
rhand -21.5936 12.4369
rfingers 7.12502
rthumb 4.80116 -17.4887
lclavicle 2.18663e-015 -1.66979e-014
lhumerus -39.1597 3.95378 87.3247
lradius 36.965
lwrist 6.59067
lhand -26.7035 26.7999
lfingers 7.12502
lthumb -0.133714 56.7796
rfemur -15.2979 -4.48551 30.2917
rtibia 25.1065
rfoot -10.5404 5.46351
rtoes 19.2763
lfemur -20.7941 1.67005 -11.9772
ltibia 42.454
lfoot -18.1653 -11.3012
ltoes 5.54138
3744
root 12.5026 17.5833 -22.3314 1513.81 -84.0124 -70.499
lowerback 6.12365 1.28894 7.22125
upperback 1.82915 2.08133 4.27116
thorax -1.43503 0.964138 0.222887
lowerneck -12.2205 -1.87862 -9.54615
upperneck 38.6481 -3.293 3.77039
head 16.0257 -2.7974 2.64365
rclavicle 1.19271e-015 3.02153e-014
rhumerus -26.174 -7.4399 -77.4823
rradius 36.1676
rwrist -14.9766
rhand -21.4438 12.5312
rfingers 7.12502
rthumb 4.94584 -17.3911
lclavicle 1.19271e-015 3.02153e-014
lhumerus -39.1691 3.77149 87.4052
lradius 36.8858
lwrist 6.54765
lhand -28.0261 26.1972
lfingers 7.12502
lthumb -1.41108 56.1723
rfemur -15.194 -4.49254 30.0742
rtibia 25.2182
rfoot -10.6262 5.56989
rtoes 20.649
lfemur -20.7771 1.51537 -12.2364
ltibia 41.2376
lfoot -18.5319 -11.5177
ltoes 6.50871
3745
root 12.4581 17.5836 -22.3228 1514.08 -84.1301 -70.7842
lowerback 6.12029 1.30197 7.13942
upperback 1.87058 2.08982 4.27586
thorax -1.39307 0.970051 0.272973
lowerneck -12.0857 -1.88506 -9.64384
upperneck 38.4909 -3.25826 3.72962
head 15.911 -2.79643 2.64761
rclavicle -2.76311e-014 -3.02153e-014
rhumerus -26.0933 -7.35476 -77.4277
rradius 36.3723
rwrist -14.9447
rhand -21.3694 12.6773
rfingers 7.12502
rthumb 5.01772 -17.2433
lclavicle -2.76311e-014 -3.02153e-014
lhumerus -39.0934 4.09257 87.2996
lradius 36.6662
lwrist 5.9603
lhand -19.5276 19.9468
lfingers 7.12502
lthumb 6.79584 49.8178
rfemur -15.039 -4.50104 29.9394
rtibia 25.2552
rfoot -10.7968 5.56394
rtoes 20.8202
lfemur -20.6612 1.24863 -12.3908
ltibia 40.051
lfoot -18.9505 -11.4744
ltoes 6.22415
3746
root 12.4103 17.5815 -22.316 1514.96 -84.134 -71.7435
lowerback 6.12567 1.3142 7.18131
upperback 1.93869 2.10085 4.31671
thorax -1.32449 0.976801 0.29231
lowerneck -12.0051 -1.92311 -9.57037
upperneck 38.4857 -3.31078 3.61689
head 15.8902 -2.8245 2.57627
rclavicle 3.83654e-014 5.96354e-014
rhumerus -25.9999 -7.13144 -77.4043
rradius 36.5712
rwrist -15.0403
rhand -21.1571 12.6959
rfingers 7.12502
rthumb 5.22268 -17.2198
lclavicle 3.83654e-014 5.96354e-014
lhumerus -39.0153 4.22117 87.3013
lradius 36.4537
lwrist 5.7872
lhand -18.3569 20.6479
lfingers 7.12502
lthumb 7.92591 50.4793
rfemur -14.7872 -4.58036 29.9499
rtibia 25.2713
rfoot -10.9988 5.71962
rtoes 20.7497
lfemur -20.4454 1.16547 -12.4188
ltibia 38.8684
lfoot -19.262 -10.6375
ltoes 4.82833
3747
root 12.3581 17.5892 -22.3141 1516.34 -84.1515 -73.1291
lowerback 6.01731 1.28881 7.19139
upperback 1.99032 2.05079 4.3228
thorax -1.21245 0.955152 0.299817
lowerneck -12.2606 -1.85696 -9.41474
upperneck 38.6969 -3.18299 3.45821
head 16.0423 -2.7769 2.50133
rclavicle -1.21259e-014 -1.66979e-014
rhumerus -25.9101 -6.77579 -77.5037
rradius 36.8125
rwrist -15.0636
rhand -20.97 12.7041
rfingers 7.12502
rthumb 5.40332 -17.207
lclavicle -1.21259e-014 -1.66979e-014
lhumerus -39.0658 3.95598 87.4486
lradius 36.4737
lwrist 6.4877
lhand -27.1523 28.7637
lfingers 7.12502
lthumb -0.56723 58.7427
rfemur -14.5421 -4.43651 29.9437
rtibia 25.2681
rfoot -11.1417 5.72544
rtoes 20.5666
lfemur -20.2961 1.54906 -12.4763
ltibia 37.6934
lfoot -19.529 -10.2364
ltoes 4.21859
3748
root 12.3159 17.6014 -22.2959 1515.17 -84.2742 -71.8336
lowerback 5.92767 1.11028 7.2347
upperback 1.91805 1.81476 4.26945
thorax -1.24537 0.837303 0.23696
lowerneck -12.3631 -1.67792 -9.42766
upperneck 38.8527 -2.88937 3.39647
head 16.1196 -2.67439 2.527
rclavicle -2.90226e-014 -4.6118e-014
rhumerus -25.8432 -6.12986 -77.7095
rradius 37.0719
rwrist -15.1974
rhand -21.5174 12.3454
rfingers 7.12502
rthumb 4.87474 -17.5786
lclavicle -2.90226e-014 -4.6118e-014
lhumerus -39.2885 4.17819 87.3851
lradius 36.5453
lwrist 6.75121
lhand -29.9957 30.3756
lfingers 7.12502
lthumb -3.31327 60.3296
rfemur -14.5378 -4.57175 29.6924
rtibia 25.3108
rfoot -11.3154 5.69663
rtoes 20.6524
lfemur -20.3023 1.51994 -12.7974
ltibia 36.5483
lfoot -19.769 -10.0792
ltoes 5.03428
3749
root 12.2737 17.6025 -22.2854 1514.67 -84.4007 -71.2781
lowerback 5.87217 1.0804 7.07664
upperback 1.84922 1.76793 4.30767
thorax -1.29477 0.812265 0.367066
lowerneck -12.1397 -1.58732 -9.59065
upperneck 38.8166 -2.76015 3.45744
head 16.0384 -2.64021 2.60468
rclavicle 1.59028e-014 6.04305e-014
rhumerus -25.8584 -5.65232 -77.7162
rradius 37.3698
rwrist -15.7646
rhand -22.4652 11.8702
rfingers 7.12502
rthumb 3.95953 -18.0728
lclavicle 1.59028e-014 6.04305e-014
lhumerus -39.4758 4.43172 87.3824
lradius 36.4576
lwrist 6.46054
lhand -30.0118 30.0295
lfingers 7.12502
lthumb -3.32882 59.9833
rfemur -14.4831 -4.4252 29.4936
rtibia 25.3947
rfoot -11.5628 5.63696
rtoes 20.7549
lfemur -20.2214 1.42746 -13.0278
ltibia 35.506
lfoot -19.6719 -9.25454
ltoes 5.64265
